<svg width="14" height="16" viewBox="0 0 14 16" fill="none" xmlns="http://www.w3.org/2000/svg">
<path d="M11.2285 3.5283H10.208C10.0986 2.71728 9.70225 1.9723 9.09079 1.42839C8.47933 0.884485 7.69324 0.577647 6.875 0.563499C6.05676 0.577647 5.27067 0.884485 4.65921 1.42839C4.04775 1.9723 3.6514 2.71728 3.542 3.5283H2.522C1.96079 3.52867 1.42266 3.75172 1.02575 4.14848C0.628835 4.54524 0.405581 5.08329 0.404999 5.6445V13.36C0.405502 13.9211 0.628603 14.4592 1.02534 14.856C1.42209 15.2528 1.96006 15.4761 2.5212 15.4767H11.2282C11.7894 15.4762 12.3276 15.2531 12.7244 14.8562C13.1213 14.4594 13.3445 13.9212 13.345 13.36V5.6445C13.3444 5.08338 13.1212 4.5454 12.7244 4.14866C12.3276 3.75191 11.7896 3.5288 11.2285 3.5283ZM6.875 1.6631C7.40241 1.67456 7.91012 1.86567 8.31418 2.20482C8.71825 2.54397 8.99448 3.01086 9.0972 3.5283H4.6528C4.75552 3.01086 5.03175 2.54397 5.43582 2.20482C5.83988 1.86567 6.34759 1.67456 6.875 1.6631ZM12.245 13.36C12.2447 13.6296 12.1375 13.888 11.947 14.0787C11.7564 14.2694 11.498 14.3767 11.2284 14.3771H2.5215C2.25194 14.3766 1.99356 14.2693 1.80301 14.0787C1.61246 13.888 1.50529 13.6296 1.505 13.36V5.6445C1.50532 5.37498 1.61252 5.11659 1.8031 4.92601C1.99369 4.73542 2.25208 4.62822 2.5216 4.6279H11.2286C11.4981 4.62827 11.7564 4.7355 11.947 4.92608C12.1375 5.11665 12.2447 5.37501 12.245 5.6445V13.36Z" fill="black" fill-opacity="0.8"/>
</svg>
