<svg width="14" height="17" viewBox="0 0 14 17" fill="none" xmlns="http://www.w3.org/2000/svg">
<path d="M13.0729 6.1825C12.552 6.50141 12.1206 6.94725 11.8189 7.47831C11.5173 8.00937 11.3553 8.60829 11.3481 9.219C11.3502 9.90636 11.5538 10.578 11.9338 11.1508C12.3138 11.7235 12.8535 12.1722 13.486 12.4413C13.2366 13.2459 12.8676 14.0084 12.3912 14.7031C11.7096 15.6843 10.9969 16.6654 9.91251 16.6654C8.82811 16.6654 8.54921 16.0354 7.29951 16.0354C6.08081 16.0354 5.64701 16.6861 4.65551 16.6861C3.66401 16.6861 2.97211 15.7772 2.17681 14.6618C1.12628 13.0992 0.548917 11.2667 0.514008 9.3842C0.514008 6.2858 2.52801 4.6437 4.51091 4.6437C5.56441 4.6437 6.44231 5.3356 7.10331 5.3356C7.73331 5.3356 8.71451 4.6023 9.91251 4.6023C10.5285 4.58641 11.1389 4.72222 11.69 4.99778C12.2411 5.27334 12.716 5.68019 13.0729 6.1825ZM9.34451 3.2907C9.87261 2.66946 10.1716 1.88583 10.1914 1.0707C10.1923 0.963244 10.1819 0.85599 10.1604 0.750702C9.25327 0.839316 8.41441 1.27168 7.81591 1.9591C7.28271 2.55559 6.97251 3.31829 6.93801 4.1176C6.93841 4.21481 6.9488 4.31172 6.96901 4.4068C7.04052 4.42032 7.11313 4.42725 7.18591 4.4275C7.60398 4.39423 8.01092 4.27631 8.382 4.08088C8.75309 3.88546 9.08055 3.61662 9.34451 3.2907Z" fill="black" fill-opacity="0.8"/>
</svg>
