<svg width="15" height="16" viewBox="0 0 15 16" fill="none" xmlns="http://www.w3.org/2000/svg">
<path d="M14.2668 13.702L10.3968 9.832C11.0978 8.903 11.5188 7.751 11.5188 6.5C11.5188 3.44 9.02976 0.949997 5.96876 0.949997C2.90876 0.949997 0.418762 3.44 0.418762 6.5C0.418762 9.561 2.90876 12.05 5.96876 12.05C7.21976 12.05 8.37176 11.629 9.30076 10.928L13.1708 14.798C13.3218 14.949 13.5208 15.026 13.7188 15.026C13.9168 15.026 14.1148 14.95 14.2668 14.798C14.5698 14.495 14.5698 14.005 14.2668 13.702ZM1.51876 6.5C1.51876 4.046 3.51576 2.05 5.96876 2.05C8.42276 2.05 10.4188 4.047 10.4188 6.5C10.4188 8.953 8.42276 10.95 5.96876 10.95C3.51476 10.95 1.51876 8.954 1.51876 6.5Z" fill="black" fill-opacity="0.8"/>
</svg>
